<svg width="31" height="31" xmlns="http://www.w3.org/2000/svg" xmlns:xlink="http://www.w3.org/1999/xlink" xmlns:svgjs="http://svgjs.com/svgjs" fill="#fff"><svg xmlns="http://www.w3.org/2000/svg" width="31" height="31" viewBox="0.789 0.461 30.166 30.166"><path paint-order="stroke fill markers" fill-rule="evenodd" d="M15.872.46c8.33 0 15.083 6.755 15.083 15.084 0 8.33-6.752 15.083-15.083 15.083C7.542 30.627.79 23.875.79 15.544.789 7.215 7.54.46 15.872.46zm-4.791 20.126c-.596-.719-1.337-.974-2.23-.767l-.23.063-.886 1.532a1.242 1.242 0 1 0 2.06 1.382l.092-.142 1.192-2.068h.002zm6.616-10.078c-.736.608-1.478 2.408-.438 4.202l4.586 7.942a1.244 1.244 0 1 0 2.227-1.09l-.075-.148-1.21-2.1h1.794a1.236 1.236 0 0 0 1.24-1.235v-.006a1.239 1.239 0 0 0-1.084-1.232l-.156-.008h-3.228l-3.308-5.727-.348-.598zm.42-4.592a1.245 1.245 0 0 0-1.605.316l-.092.14-.554.954-.542-.955a1.242 1.242 0 0 0-2.225 1.09l.072.15 1.266 2.198-4.05 7.018H7.223a1.235 1.235 0 0 0-1.238 1.234v.006c0 .634.469 1.154 1.082 1.23l.156.01h11.283c.511-.964-.09-2.335-1.223-2.47l-.18-.01H13.25l5.321-9.215a1.241 1.241 0 0 0-.455-1.696z"/></svg></svg>